<svg width="168" height="168" viewBox="0 0 168 168" fill="none" xmlns="http://www.w3.org/2000/svg">
    <g clip-path="url(#clip0_2579_166310)">
        <rect width="168" height="168" fill="#F2F2F2" />
        <path fill-rule="evenodd" clip-rule="evenodd" d="M111.667 84.2917C111.663 86.5014 109.777 88.1079 107.583 88.375C105.39 88.6421 103.577 87.1944 103.044 85.05C102.891 84.4333 102.338 84.0001 101.702 84C100.923 84 100 84.6315 100 85.4105V96.25C100 97.2165 101.075 98.2917 102.042 98.2917H124.792C125.758 98.2917 126.833 97.2165 126.833 96.25V94.752C126.833 93.5116 125.885 92.3639 124.816 91.735L111.667 84.2917Z" stroke="#E5E5E5" stroke-width="1.5" stroke-linecap="round" stroke-linejoin="round" />
        <path d="M100.292 94.793H126.542" stroke="#E5E5E5" stroke-width="1.5" stroke-linecap="round" stroke-linejoin="round" />
        <path d="M113.417 89.5404L115.75 87.207" stroke="#E5E5E5" stroke-width="1.5" stroke-linecap="round" stroke-linejoin="round" />
        <path d="M116.917 91.8763L119.25 89.543" stroke="#E5E5E5" stroke-width="1.5" stroke-linecap="round" stroke-linejoin="round" />
        <path fill-rule="evenodd" clip-rule="evenodd" d="M38.096 89.1425C36.9946 89.4558 36.6881 90.5081 37.0014 91.6095L37.5688 93.6038C37.7254 94.1545 37.2154 95.3211 36.6647 95.4777L16.722 101.151C16.1713 101.308 15.1237 100.584 14.967 100.034L14.3997 98.0393C14.0864 96.9379 13.2719 96.2045 12.1705 96.5178C11.0691 96.8311 10.0978 98.0726 10.4111 99.174L11.5458 103.163C12.1725 105.365 14.3244 106.144 16.5272 105.518L39.1289 99.0881C41.3317 98.4614 42.7513 96.6662 42.1246 94.4634L40.99 90.4749C40.6766 89.3735 39.1974 88.8292 38.096 89.1425Z" stroke="#E5E5E5" stroke-width="1.5" stroke-linecap="round" stroke-linejoin="round" />
        <path d="M16.669 106.016L17.6618 109.506" stroke="#E5E5E5" stroke-width="1.5" stroke-linecap="round" stroke-linejoin="round" />
        <path d="M39.3181 99.7539L40.2636 103.078" stroke="#E5E5E5" stroke-width="1.5" stroke-linecap="round" stroke-linejoin="round" />
        <path d="M12.1705 96.5204C11.2305 93.2162 13.3376 89.1825 16.6419 88.2425L29.937 84.4603C33.2412 83.5203 37.156 85.8409 38.096 89.1451" stroke="#E5E5E5" stroke-width="1.5" stroke-linecap="round" stroke-linejoin="round" />
        <path fill-rule="evenodd" clip-rule="evenodd" d="M33.5022 146.435C33.3821 145.394 34.0974 144.442 35.1301 144.267C35.9524 144.142 36.7141 143.761 37.3069 143.177C39.2302 141.255 38.751 137.663 36.2316 135.139C33.7123 132.614 30.115 132.14 28.193 134.064C27.6096 134.656 27.2283 135.418 27.1033 136.24C26.9299 137.273 25.9788 137.989 24.9384 137.871C23.0371 137.58 21.1082 138.185 19.7132 139.509C17.0218 142.201 17.5601 147.104 20.9158 150.46C24.2714 153.816 29.175 154.354 31.8664 151.662C33.1909 150.267 33.7949 148.336 33.5022 146.435Z" stroke="#E5E5E5" stroke-width="1.5" stroke-linecap="round" stroke-linejoin="round" />
        <path fill-rule="evenodd" clip-rule="evenodd" d="M40.7725 129.94C40.1867 129.354 40.1867 128.404 40.7725 127.818L43.5249 125.066C44.1107 124.48 45.0604 124.48 45.6462 125.066L46.3099 125.729C46.8957 126.315 46.8957 127.265 46.3099 127.851L43.5575 130.603C42.9717 131.189 42.0219 131.189 41.4361 130.603L40.7725 129.94Z" stroke="#E5E5E5" stroke-width="1.5" stroke-linecap="round" stroke-linejoin="round" />
        <path d="M41.105 130.266L36.2317 135.139" stroke="#E5E5E5" stroke-width="1.5" stroke-linecap="round" stroke-linejoin="round" />
        <path d="M41.8008 124L43.1937 125.393" stroke="#E5E5E5" stroke-width="1.5" stroke-linecap="round" stroke-linejoin="round" />
        <path d="M45.9783 128.18L47.3713 129.573" stroke="#E5E5E5" stroke-width="1.5" stroke-linecap="round" stroke-linejoin="round" />
        <path d="M43.8896 130.266L45.2826 131.659" stroke="#E5E5E5" stroke-width="1.5" stroke-linecap="round" stroke-linejoin="round" />
        <path d="M39.7121 126.086L41.105 127.479" stroke="#E5E5E5" stroke-width="1.5" stroke-linecap="round" stroke-linejoin="round" />
        <path fill-rule="evenodd" clip-rule="evenodd" d="M31.357 141.985C32.4446 141.985 33.3263 141.104 33.3263 140.016C33.3263 138.929 32.4446 138.047 31.357 138.047C30.2694 138.047 29.3877 138.929 29.3877 140.016C29.3877 141.104 30.2694 141.985 31.357 141.985Z" stroke="#E5E5E5" stroke-width="1.5" stroke-linecap="round" stroke-linejoin="round" />
        <path d="M23.6991 144.887L26.4837 147.671" stroke="#E5E5E5" stroke-width="1.5" stroke-linecap="round" stroke-linejoin="round" />
        <path fill-rule="evenodd" clip-rule="evenodd" d="M13.1053 42L27.6316 42C28.2369 42 28.8421 42.6053 28.8421 43.2105V50.4737C28.8421 51.0789 28.2369 51.6842 27.6316 51.6842H13.1053C12.5 51.6842 11.8947 51.0789 11.8947 50.4737V43.2105C11.8947 42.6053 12.5 42 13.1053 42Z" stroke="#E5E5E5" stroke-width="1.5" stroke-linecap="round" stroke-linejoin="round" />
        <path fill-rule="evenodd" clip-rule="evenodd" d="M20.3684 62.5783C20.3684 63.7889 20.9737 64.9994 22.7895 64.9994C24.6053 64.9994 25.2105 63.7889 25.2105 62.5783V51.6836H20.3684V62.5783Z" stroke="#E5E5E5" stroke-width="1.5" stroke-linecap="round" stroke-linejoin="round" />
        <path fill-rule="evenodd" clip-rule="evenodd" d="M8.26317 43.2109H11.8947V50.5322H8.26317C7.59461 50.5322 7.05264 49.9321 7.05264 49.2636V44.4215C7.05264 43.7529 7.59461 43.2109 8.26317 43.2109Z" stroke="#E5E5E5" stroke-width="1.5" stroke-linecap="round" stroke-linejoin="round" />
        <path d="M7.05263 46.8984H1" stroke="#E5E5E5" stroke-width="1.5" stroke-linecap="round" stroke-linejoin="round" />
        <path d="M15.5263 51.6836L15.5263 55.3152C15.5263 56.5257 15.5263 56.5257 16.7368 56.5257H20.3684" stroke="#E5E5E5" stroke-width="1.5" stroke-linecap="round" stroke-linejoin="round" />
        <path d="M19.1579 45.6328H22.7895" stroke="#E5E5E5" stroke-width="1.5" stroke-linecap="round" stroke-linejoin="round" />
        <path d="M19.1579 48.0508H22.7895" stroke="#E5E5E5" stroke-width="1.5" stroke-linecap="round" stroke-linejoin="round" />
        <path fill-rule="evenodd" clip-rule="evenodd" d="M73 108H81C81.5523 108 82 108.448 82 109V111H72V109C72 108.448 72.4477 108 73 108Z" stroke="#E5E5E5" stroke-width="1.5" stroke-linecap="round" stroke-linejoin="round" />
        <path fill-rule="evenodd" clip-rule="evenodd" d="M81.5 131C84.5376 131 87 128.538 87 125.5C87 122.462 84.5376 120 81.5 120C78.4624 120 76 122.462 76 125.5C76 128.538 78.4624 131 81.5 131Z" stroke="#E5E5E5" stroke-width="1.5" stroke-linecap="round" stroke-linejoin="round" />
        <path fill-rule="evenodd" clip-rule="evenodd" d="M81.5 128C82.8807 128 84 126.881 84 125.5C84 124.119 82.8807 123 81.5 123C80.1193 123 79 124.119 79 125.5C79 126.881 80.1193 128 81.5 128Z" stroke="#E5E5E5" stroke-width="1.5" stroke-linecap="round" stroke-linejoin="round" />
        <path fill-rule="evenodd" clip-rule="evenodd" d="M67.5 131C69.433 131 71 129.433 71 127.5C71 125.567 69.433 124 67.5 124C65.567 124 64 125.567 64 127.5C64 129.433 65.567 131 67.5 131Z" stroke="#E5E5E5" stroke-width="1.5" stroke-linecap="round" stroke-linejoin="round" />
        <path d="M71 128H76" stroke="#E5E5E5" stroke-width="1.5" stroke-linecap="round" stroke-linejoin="round" />
        <path d="M66 124L66 119.5C65.9999 118.829 66.355 118.183 67 118L71 117V123H74V121.002C75 119 77.5772 117.596 80.0328 117.313C82.4883 117.029 85.1971 117.809 87 119.5" stroke="#E5E5E5" stroke-width="1.5" stroke-linecap="round" stroke-linejoin="round" />
        <path d="M71 117L73 111" stroke="#E5E5E5" stroke-width="1.5" stroke-linecap="round" stroke-linejoin="round" />
        <path d="M84 117.501L81.749 111.258" stroke="#E5E5E5" stroke-width="1.5" stroke-linecap="round" stroke-linejoin="round" />
        <path d="M67.5 127C67.7761 127 68 127.224 68 127.5C68 127.776 67.7761 128 67.5 128C67.2239 128 67 127.776 67 127.5C67 127.224 67.2239 127 67.5 127Z" stroke="#E5E5E5" stroke-width="1.5" />
        <path fill-rule="evenodd" clip-rule="evenodd" d="M14 7.5C14 6.67157 14.6716 6 15.5 6H35.5C36.3284 6 37 6.67157 37 7.5V20.5C37 21.3284 36.3284 22 35.5 22H15.5C14.6716 22 14 21.3284 14 20.5V7.5Z" stroke="#E5E5E5" stroke-width="1.5" stroke-linecap="round" stroke-linejoin="round" />
        <path fill-rule="evenodd" clip-rule="evenodd" d="M17 17.0125V10.0014C16.9942 9.276 17.7627 9.1053 18.477 8.97848C20.8005 8.62331 23.1498 8.46373 25.5 8.50146C27.8502 8.46373 30.1995 8.62331 32.523 8.97848C33.2373 9.1053 34.0058 9.276 34 10.0014V17.0014C34.0039 17.7352 33.224 18.3741 32.5 18.4935C30.1838 18.8484 27.8431 19.0182 25.5 19.0015C23.1585 19.018 20.8195 18.8481 18.505 18.4935C17.779 18.3763 16.9965 17.7479 17 17.0125Z" stroke="#E5E5E5" stroke-width="1.5" stroke-linecap="round" stroke-linejoin="round" />
        <path d="M24 1L28 6L32 1" stroke="#E5E5E5" stroke-width="1.5" stroke-linecap="round" stroke-linejoin="round" />
        <path d="M73.7478 -1V21" stroke="#E5E5E5" stroke-width="1.5" stroke-linecap="round" stroke-linejoin="round" />
        <path d="M66.7478 21H79.7478" stroke="#E5E5E5" stroke-width="1.5" stroke-linecap="round" stroke-linejoin="round" />
        <path fill-rule="evenodd" clip-rule="evenodd" d="M67.2638 12.6389L63.2738 8.8085C63.0571 8.60093 62.9603 8.30438 63.015 8.01518C63.0697 7.72598 63.2689 7.48102 63.5478 7.35986L67.2248 5.7845C67.5772 5.63378 67.9899 5.70706 68.2628 5.96882L70.1628 7.79282C70.4308 8.04978 70.5098 8.43695 70.3628 8.77202L68.7798 12.3547C68.6593 12.6287 68.4047 12.8272 68.1006 12.8842C67.7966 12.9412 67.4829 12.8492 67.2638 12.6389Z" stroke="#E5E5E5" stroke-width="1.5" stroke-linecap="round" stroke-linejoin="round" />
        <path fill-rule="evenodd" clip-rule="evenodd" d="M85.2248 4.67022L81.2798 8.45742C81.0636 8.6654 80.754 8.75682 80.4534 8.70141C80.1528 8.64601 79.9004 8.45101 79.7798 8.18094L78.2268 4.70862C78.0785 4.37493 78.1578 3.98809 78.4268 3.73326L80.3088 1.92654C80.575 1.66886 80.9778 1.59281 81.3258 1.73454L84.9368 3.23118C85.2178 3.34707 85.4206 3.58913 85.4783 3.8774C85.536 4.16567 85.441 4.46264 85.2248 4.67022V4.67022Z" stroke="#E5E5E5" stroke-width="1.5" stroke-linecap="round" stroke-linejoin="round" />
        <path d="M73.7478 1L76.7478 1C77.1454 1.00008 77.4666 1.23022 77.7478 1.5L78.7478 3" stroke="#E5E5E5" stroke-width="1.5" stroke-linecap="round" stroke-linejoin="round" />
        <path d="M73.7478 5H71.7478C71.3503 5.00008 71.029 5.23022 70.7478 5.5L69.7478 7" stroke="#E5E5E5" stroke-width="1.5" stroke-linecap="round" stroke-linejoin="round" />
        <path d="M151.935 125.785L151.23 129.6C151.133 130.127 151.74 131.009 152.266 131.107L153.538 131.342C154.065 131.439 154.947 130.832 155.045 130.305L155.75 126.491" stroke="#E5E5E5" stroke-width="1.5" stroke-linecap="round" stroke-linejoin="round" />
        <path d="M145.247 119.287L142.703 118.816" stroke="#E5E5E5" stroke-width="1.5" stroke-linecap="round" stroke-linejoin="round" />
        <path d="M166.864 123.287L164.32 122.816" stroke="#E5E5E5" stroke-width="1.5" stroke-linecap="round" stroke-linejoin="round" />
        <path d="M150.568 118.956L147.389 118.368C146.336 118.174 145.441 118.234 145.247 119.287C145.052 120.341 145.865 120.717 146.919 120.912L150.098 121.499" stroke="#E5E5E5" stroke-width="1.5" stroke-linecap="round" stroke-linejoin="round" />
        <path d="M158.999 123.145L162.178 123.733C163.231 123.927 164.126 123.867 164.32 122.814C164.515 121.76 163.702 121.384 162.648 121.189L159.469 120.602" stroke="#E5E5E5" stroke-width="1.5" stroke-linecap="round" stroke-linejoin="round" />
        <path fill-rule="evenodd" clip-rule="evenodd" d="M153.843 126.134C156.301 126.589 158.662 124.965 159.116 122.507C159.571 120.049 157.947 117.688 155.489 117.233C153.031 116.779 150.67 118.403 150.215 120.861C149.761 123.319 151.385 125.68 153.843 126.134Z" stroke="#E5E5E5" stroke-width="1.5" stroke-linecap="round" stroke-linejoin="round" />
        <path fill-rule="evenodd" clip-rule="evenodd" d="M152.197 135.04C151.143 134.845 150.131 135.541 149.937 136.595L148.526 144.224C148.331 145.278 149.027 146.29 150.08 146.485C151.134 146.679 152.146 145.983 152.341 144.93L153.751 137.3C153.946 136.247 153.25 135.235 152.197 135.04Z" stroke="#E5E5E5" stroke-width="1.5" stroke-linecap="round" stroke-linejoin="round" />
        <path d="M152.693 143.017L154.601 143.369C156.708 143.759 158.095 142.249 158.485 140.142L159.661 133.784C160.44 129.571 158.056 126.912 153.843 126.133C149.629 125.354 146.452 126.984 145.673 131.198L144.498 137.556C144.108 139.663 144.864 141.569 146.971 141.958L148.878 142.311" stroke="#E5E5E5" stroke-width="1.5" stroke-linecap="round" stroke-linejoin="round" />
        <path fill-rule="evenodd" clip-rule="evenodd" d="M140.665 67.027C140.298 65.4113 141.31 63.804 142.925 63.4369L151.794 61.4221C153.41 61.055 155.017 62.0672 155.384 63.6829L159.549 82.014C159.916 83.6297 158.904 85.237 157.288 85.6041L148.419 87.619C146.804 87.986 145.196 86.9738 144.829 85.3581L140.665 67.027Z" stroke="#E5E5E5" stroke-width="1.5" stroke-linecap="round" stroke-linejoin="round" />
        <path d="M144.061 81.9766L158.78 78.6324" stroke="#E5E5E5" stroke-width="1.5" stroke-linecap="round" stroke-linejoin="round" />
        <path d="M152.5 83C152.224 83 152 83.2239 152 83.5C152 83.7761 152.224 84 152.5 84C152.776 84 153 83.7761 153 83.5C153 83.2239 152.776 83 152.5 83" stroke="#E5E5E5" stroke-width="1.5" stroke-linecap="round" stroke-linejoin="round" />
        <path d="M66.9361 50.8203L67.7811 51.3551C69.881 52.6839 70.2388 55.8866 68.91 57.9865L68.3753 58.8315" stroke="#E5E5E5" stroke-width="1.5" stroke-linecap="round" stroke-linejoin="round" />
        <path d="M60.7437 58.7383L58.6048 62.1183" stroke="#E5E5E5" stroke-width="1.5" stroke-linecap="round" stroke-linejoin="round" />
        <path d="M57.9842 59.3594L61.3642 61.4983" stroke="#E5E5E5" stroke-width="1.5" stroke-linecap="round" stroke-linejoin="round" />
        <path fill-rule="evenodd" clip-rule="evenodd" d="M70.7716 66.2674C71.005 66.415 71.0744 66.7239 70.9268 66.9572C70.7791 67.1906 70.4702 67.2601 70.2369 67.1124C70.0036 66.9647 69.9341 66.6559 70.0818 66.4225C70.2294 66.1892 70.5383 66.1197 70.7716 66.2674Z" stroke="#E5E5E5" stroke-width="1.5" stroke-linecap="round" stroke-linejoin="round" />
        <path fill-rule="evenodd" clip-rule="evenodd" d="M73.5312 65.6463C73.7645 65.7939 73.834 66.1028 73.6863 66.3362C73.5386 66.5695 73.2298 66.639 72.9964 66.4913C72.7631 66.3436 72.6936 66.0348 72.8413 65.8014C72.989 65.5681 73.2978 65.4986 73.5312 65.6463Z" stroke="#E5E5E5" stroke-width="1.5" stroke-linecap="round" stroke-linejoin="round" />
        <path fill-rule="evenodd" clip-rule="evenodd" d="M73.815 71.7432L75.954 68.3631C77.283 66.263 76.813 64.1731 74.7129 62.8441L62.0376 54.823C59.9375 53.494 57.8476 53.964 56.5186 56.0641L51.706 63.6693C50.8722 64.9183 50.9893 67.0188 51.9742 68.1525C53.0352 69.2938 54.764 69.5048 56.0684 68.6523L60.3806 66.7919L64.6057 69.4656L64.7913 74.0102C64.6162 75.0955 64.9871 76.1973 65.7827 76.9559C66.4817 77.591 67.4254 77.8849 68.3614 77.759C69.2973 77.6331 70.6351 76.7655 71.1413 75.9683L73.815 71.7432Z" stroke="#E5E5E5" stroke-width="1.5" stroke-linecap="round" stroke-linejoin="round" />
        <path d="M135.742 7.62891C138.662 12.2451 142.126 15.7087 146.742 18.6289" stroke="#E5E5E5" stroke-width="1.5" stroke-linecap="round" stroke-linejoin="round" />
        <path d="M142.742 15.6299L144.899 13.2879C145.685 12.5008 146.695 11.9767 147.791 11.7879C148.695 11.6337 149.528 11.2024 150.175 10.5539C151.815 8.77928 151.761 6.02651 150.052 4.31802C148.344 2.60954 145.591 2.55518 143.816 4.19489C143.167 4.84294 142.736 5.6768 142.582 6.58089C142.392 7.67647 141.868 8.68657 141.082 9.47289L138.742 11.6299" stroke="#E5E5E5" stroke-width="1.5" stroke-linecap="round" stroke-linejoin="round" />
        <path fill-rule="evenodd" clip-rule="evenodd" d="M136.242 21.6289C138.175 21.6289 139.742 20.0619 139.742 18.1289C139.742 16.1959 138.175 14.6289 136.242 14.6289C134.309 14.6289 132.742 16.1959 132.742 18.1289C132.742 20.0619 134.309 21.6289 136.242 21.6289Z" stroke="#E5E5E5" stroke-width="1.5" stroke-linecap="round" stroke-linejoin="round" />
        <path d="M143.042 15.9314C144.08 19.098 142.809 22.563 139.97 24.3077C137.131 26.0524 133.465 25.6209 131.109 23.2646C128.753 20.9082 128.321 17.2428 130.066 14.4037C131.811 11.5646 135.276 10.2937 138.442 11.3314" stroke="#E5E5E5" stroke-width="1.5" stroke-linecap="round" stroke-linejoin="round" />
        <path fill-rule="evenodd" clip-rule="evenodd" d="M96.1837 53.6391C99.0466 54.1991 101.821 52.3322 102.381 49.4693C102.941 46.6064 101.074 43.8317 98.2115 43.2717C95.3486 42.7118 92.5739 44.5786 92.0139 47.4415C91.4539 50.3044 93.3208 53.0792 96.1837 53.6391Z" stroke="#E5E5E5" stroke-width="1.5" stroke-linecap="round" stroke-linejoin="round" />
        <path fill-rule="evenodd" clip-rule="evenodd" d="M115.623 57.4399C118.486 57.9999 121.26 56.133 121.82 53.2701C122.38 50.4072 120.513 47.6325 117.65 47.0725C114.788 46.5125 112.013 48.3794 111.453 51.2423C110.893 54.1052 112.76 56.8799 115.623 57.4399Z" stroke="#E5E5E5" stroke-width="1.5" stroke-linecap="round" stroke-linejoin="round" />
        <path d="M97.1977 48.4512C100.85 40.6001 107.33 38.4299 116.073 41.379" stroke="#E5E5E5" stroke-width="1.5" stroke-linecap="round" stroke-linejoin="round" />
        <path d="M101.282 34.4531L106.466 35.467" stroke="#E5E5E5" stroke-width="1.5" stroke-linecap="round" stroke-linejoin="round" />
        <path d="M103.874 34.957L105.452 40.6477" stroke="#E5E5E5" stroke-width="1.5" stroke-linecap="round" stroke-linejoin="round" />
        <path d="M115.255 31.8008L120.439 32.8147C121.512 33.0247 122.904 33.9696 122.65 35.2655C122.397 36.5615 120.752 36.9125 119.678 36.7025L117.734 36.3223C117.442 36.2652 117.315 36.0057 117.086 36.1955C116.857 36.3854 116.831 37.194 116.833 37.4914L116.637 52.2536" stroke="#E5E5E5" stroke-width="1.5" stroke-linecap="round" stroke-linejoin="round" />
        <path fill-rule="evenodd" clip-rule="evenodd" d="M111.958 157.253C118.577 158.402 124.874 153.969 126.024 147.351C127.174 140.732 122.74 134.435 116.122 133.285C109.503 132.135 103.206 136.568 102.056 143.187C100.906 149.805 105.34 156.103 111.958 157.253Z" stroke="#E5E5E5" stroke-width="1.5" stroke-linecap="round" stroke-linejoin="round" />
        <path fill-rule="evenodd" clip-rule="evenodd" d="M112.501 154.125C117.393 154.975 122.048 151.698 122.898 146.806C123.747 141.914 120.471 137.26 115.579 136.41C110.687 135.56 106.032 138.837 105.182 143.729C104.333 148.621 107.609 153.275 112.501 154.125Z" stroke="#E5E5E5" stroke-width="1.5" stroke-linecap="round" stroke-linejoin="round" />
        <path d="M122.739 144.631C120.177 143.498 117.512 142.135 114.674 141.62C111.828 141.148 108.859 141.531 106.066 141.735" stroke="#E5E5E5" stroke-width="1.5" stroke-linecap="round" stroke-linejoin="round" />
        <path d="M105.432 145.384C109.32 145.352 111.595 147.555 110.077 152.632" stroke="#E5E5E5" stroke-width="1.5" stroke-linecap="round" stroke-linejoin="round" />
        <path d="M122.105 148.279C118.455 146.937 115.571 148.244 115.287 153.535" stroke="#E5E5E5" stroke-width="1.5" stroke-linecap="round" stroke-linejoin="round" />
        <path d="M114.131 144.747C114.418 144.797 114.611 145.071 114.561 145.358C114.511 145.646 114.237 145.839 113.95 145.789C113.662 145.739 113.469 145.465 113.519 145.177C113.569 144.89 113.843 144.697 114.131 144.747Z" stroke="#E5E5E5" stroke-width="1.5" />
    </g>
    <defs>
        <clipPath id="clip0_2579_166310">
            <rect width="168" height="168" fill="white" />
        </clipPath>
    </defs>
</svg>